# AST/ASF file generated using VICON BodyLanguage
# -----------------------------------------------
:version 1.10
:name VICON
:units
  mass 1.0
  length 0.45
  angle deg
:documentation
   .ast/.asf automatically generated from VICON data using
   VICON BodyBuilder and BodyLanguage model FoxedUp or BRILLIANT.MOD
:root
   order TX TY TZ RX RY RZ
   axis XYZ
   position 0 0 0  
   orientation 0 -0 0 
:bonedata
  begin
     id 1 
     name lhipjoint
     direction 0.432694 -0.693742 0.575759 
     length 2.19277 
     axis 0 -0 0  XYZ
  end
  begin
     id 2 
     name lfemur
     direction 0.34202 -0.939693 0  
     length 6.69022  
     axis 0 -0 20  XYZ
    dof rx ry rz
    limits (-160.0 20.0)
           (-70.0 70.0)
           (-60.0 70.0)
  end
  begin
     id 3 
     name ltibia
     direction 0.34202 -0.939693 0   
     length 6.50337   
     axis 0 -0 20   XYZ
    dof rx
    limits (-10.0 170.0)
  end
  begin
     id 4 
     name lfoot
     direction 0.158999 -0.435969 0.885805   
     length 2.70564   
     axis -90 -1.13533e-015 20   XYZ
    dof rx rz
    limits (-45.0 90.0)
           (-70.0 20.0)
  end
  begin
     id 5 
     name ltoes
     direction -0.00592919 0.00964381 0.999936   
     length 1.29929   
     axis -90 -1.13533e-015 20   XYZ
    dof rx
    limits (-90.0 20.0)
  end
  begin
     id 6 
     name rhipjoint
     direction -0.414359 -0.700339 0.581234   
     length 2.17212  
     axis 0 -0 0  XYZ 
  end
  begin
     id 7 
     name rfemur
     direction -0.34202 -0.939693 0   
     length 7.17659   
     axis 0 -0 -20   XYZ
    dof rx ry rz
    limits (-160.0 20.0)
           (-70.0 70.0)
           (-70.0 60.0)
  end
  begin
     id 8 
     name rtibia
     direction -0.34202 -0.939693 0   
     length 6.36669   
     axis 0 -0 -20   XYZ
    dof rx
    limits (-10.0 170.0)
 end
 begin
     id 9 
     name rfoot
     direction -0.137064 -0.37658 0.916188   
     length 2.22351  
     axis -90 1.13533e-015 -20   XYZ
    dof rx rz
    limits (-45.0 90.0)
           (-20.0 70.0)
  end
  begin
     id 10 
     name rtoes
     direction -0.000784077 -0.00289101 0.999996   
     length 1.09522   
     axis -90 1.13533e-015 -20   XYZ
    dof rx
    limits (-90.0 20.0)
  end
  begin
     id 11 
     name lowerback
     direction -0.0176242 0.984912 -0.172157   
     length 1.65301   
     axis 0 -0 0   XYZ
    dof rx ry rz
    limits (-20.0 45.0)
           (-30.0 30.0)
           (-30.0 30.0)
  end
  begin
     id 12 
     name upperback
     direction -0.00218128 0.998776 -0.0494072   
     length 1.67776   
     axis 0 -0 0   XYZ
    dof rx ry rz
    limits (-20.0 45.0)
           (-30.0 30.0)
           (-30.0 30.0)
  end
  begin
     id 13 
     name thorax
     direction 0.00544186 0.999658 0.0255711   
     length 1.72293   
     axis 0 -0 0   XYZ
    dof rx ry rz
    limits (-20.0 45.0)
           (-30.0 30.0)
           (-30.0 30.0)
  end
  begin
     id 14 
     name lowerneck
     direction -0.105325 0.983841 0.144785   
     length 2.14226   
     axis 0 -0 0   XYZ
    dof rx ry rz
    limits (-20.0 45.0)
           (-30.0 30.0)
           (-30.0 30.0)
  end
  begin
     id 15 
     name upperneck
     direction 0.0547957 0.988053 -0.144041   
     length 2.17508   
     axis 0 -0 0   XYZ
    dof rx ry rz
    limits (-20.0 45.0)
           (-30.0 30.0)
           (-30.0 30.0)
  end
  begin
     id 16
     name head
     direction 0.0247488 0.997534 -0.0656813  
     length 2.20048  
     axis 0 -0 0   XYZ
    dof rx ry rz
    limits (-20.0 45.0)
           (-30.0 30.0)
           (-30.0 30.0)
  end
  begin
     id 17 
     name lclavicle
     direction 0.820559 0.567247 -0.0701026  
     length 4.09615  
     axis 0 -0 0   XYZ
    dof ry rz
    limits (-20.0 10.0)
           (0.0 20.0)
  end
  begin
     id 18 
     name lhumerus
     direction 0.999977 -0.0067566 -9.96392e-005   
     length 4.59333   
     axis -180 -30 -90   XYZ
    dof rx ry rz
    limits (-60.0 90.0)
           (-90.0 90.0)
           (-90.0 90.0)
  end
  begin
     id 19
     name lradius
     direction 1 -4.48982e-011 -2.53425e-027   
     length 2.81151   
     axis -180 -30 -90   XYZ
    dof rx
    limits (-10.0 170.0)
  end
  begin
     id 20
     name lwrist
     direction 1 -4.48939e-011 -7.39254e-028   
     length 1.40576   
     axis 2.56395e-016 90 90   XYZ
    dof ry
    limits (-180.0 0.0)
 end
  begin
     id 21 
     name lhand
     direction 1 -4.48939e-011 -1.47851e-027   
     length 0.895651   
     axis 9.43423e-016 90 90   XYZ
    dof rx rz
    limits (-90.0 90.0)
           (-45.0 45.0)
  end
  begin
     id 22 
     name lfingers
     direction 1 -4.48978e-011 -2.95702e-027   
     length 0.722097   
     axis 1.88685e-015 90 90   XYZ
    dof rx
    limits (0.0 90.0)
  end
  begin
     id 23
     name lthumb
     direction 0.707107 -6.34931e-011 0.707107   
     length 1.03679   
     axis -90 45 -9.86935e-015   XYZ
    dof rx rz
    limits (-45.0 45.0)
           (-45.0 45.0)
  end
  begin
     id 24 
     name rclavicle
     direction -0.831414 0.553102 -0.0531864   
     length 4.24872  
     axis 0 -0 0   XYZ 
    dof ry rz
    limits (-10.0 20.0)
           (-20.0 0.0)
  end
  begin
     id 25 
     name rhumerus
     direction -0.999916 -0.000939607 0.0129331  
     length 4.74834   
     axis -180 30 90   XYZ
    dof rx ry rz
    limits (-90.0 60.0)
           (-90.0 90.0)
           (-90.0 90.0)
  end
  begin
     id 26 
     name rradius
     direction -1 -4.48956e-011 -1.31752e-027   
     length 2.79907   
     axis -180 30 90   XYZ
    dof rx
    limits (-10.0 170.0)
  end
  begin
     id 27 
     name rwrist
     direction -1 -4.4897e-011 -7.39254e-028   
     length 1.39954   
     axis 2.56395e-016 -90 -90   XYZ
    dof ry
    limits (-180.0 0.0)
  end
  begin
     id 28
     name rhand
     direction -0.999997 -0.00250697 0.000800838   
     length 0.953304   
     axis 9.43423e-016 -90 -90   XYZ
    dof rx rz
    limits (-90.0 90.0)
           (-45.0 45.0)
  end
  begin
     id 29
     name rfingers
     direction -1 -4.48954e-011 -2.95702e-027   
     length 0.763342   
     axis 1.88685e-015 -90 -90   XYZ
    dof rx
    limits (0.0 90.0)
  end
  begin
     id 30
     name rthumb
     direction -0.709701 -0.00217037 0.7045   
     length 1.10115   
     axis -90 -45 9.86935e-015   XYZ
    dof rx rz
    limits (-45.0 45.0)
           (-45.0 45.0)
  end
:hierarchy
  begin
    root lhipjoint rhipjoint lowerback
    lhipjoint lfemur
    lfemur ltibia
    ltibia lfoot
    lfoot ltoes
    rhipjoint rfemur
    rfemur rtibia
    rtibia rfoot
    rfoot rtoes
    lowerback upperback
    upperback thorax
    thorax lowerneck lclavicle rclavicle
    lowerneck upperneck
    upperneck head
    lclavicle lhumerus
    lhumerus lradius
    lradius lwrist
    lwrist lhand lthumb
    lhand lfingers
    rclavicle rhumerus
    rhumerus rradius
    rradius rwrist
    rwrist rhand rthumb
    rhand rfingers
  end

#!OML:ASF G:\ViconDB\ViconDB\414\test\team2\shane.ASF
:FULLY-SPECIFIED
:DEGREES
129
root 0.924543 16.5495 -10.2555 -6.24933 7.14621 -4.54241
lowerback 9.80076 -3.08163 -1.2551
upperback 2.49802 -4.09097 3.81115
thorax -2.51194 -2.03951 5.14903
lowerneck -13.4847 -2.55458 -9.71832
upperneck 15.7843 -3.27252 10.0031
head 7.38191 -1.25967 4.57331
rclavicle -4.5969e-015 2.46493e-014
rhumerus -52.4608 -14.5879 -63.8454
rradius 20.7998
rwrist 54.0507
rhand -27.5533 -13.0488
rfingers 7.12502
rthumb -0.95448 -43.0264
lclavicle -4.5969e-015 2.46493e-014
lhumerus -14.8177 -18.6537 96.4713
lradius 35.1456
lwrist -21.3969
lhand -43.214 5.70329
lfingers 7.12502
lthumb -16.0644 35.0574
rfemur -21.5321 -30.8618 24.3198
rtibia 33.3003
rfoot -20.0763 16.8628
rtoes -10.3664
lfemur 31.7584 -0.270149 -10.2252
ltibia 2.54444e-014
lfoot -16.0433 -22.57
ltoes -22.0461
130
root 0.894793 16.5603 -10.0319 -6.38257 7.33891 -5.0509
lowerback 9.57689 -3.12035 -0.792645
upperback 2.47748 -4.09149 4.05242
thorax -2.42468 -2.04287 5.1267
lowerneck -13.4222 -2.56612 -9.87616
upperneck 15.9526 -3.26675 9.98102
head 7.42703 -1.26989 4.5967
rclavicle -4.45278e-014 -2.62396e-014
rhumerus -52.372 -14.6214 -64.0324
rradius 20.8063
rwrist 52.8677
rhand -27.4864 -13.4994
rfingers 7.12502
rthumb -0.889884 -43.4773
lclavicle -4.45278e-014 -2.62396e-014
lhumerus -15.1831 -18.0251 96.7868
lradius 34.9581
lwrist -21.7063
lhand -43.216 5.56017
lfingers 7.12502
lthumb -16.0664 34.9141
rfemur -20.8877 -30.7016 24.617
rtibia 33.7288
rfoot -19.1691 16.9381
rtoes -7.47299
lfemur 32.3949 -0.883545 -9.51661
ltibia -8.90555e-014
lfoot -14.3503 -22.9968
ltoes -23.5697
131
root 0.872317 16.5696 -9.81269 -6.37288 7.5218 -5.43339
lowerback 9.40759 -3.20531 -0.322497
upperback 2.32287 -4.15227 4.21638
thorax -2.50792 -2.07116 5.03524
lowerneck -13.3723 -2.56972 -9.82206
upperneck 16.212 -3.27236 9.81045
head 7.49951 -1.28569 4.53439
rclavicle 3.58558e-014 -2.94201e-014
rhumerus -52.406 -14.9792 -63.7078
rradius 20.5928
rwrist 53.5881
rhand -27.6672 -13.1952
rfingers 7.12502
rthumb -1.06454 -43.1723
lclavicle 3.58558e-014 -2.94201e-014
lhumerus -15.809 -17.2278 97.1011
lradius 34.6613
lwrist -22.1096
lhand -43.2505 5.54451
lfingers 7.12502
lthumb -16.0996 34.8957
rfemur -20.031 -29.9993 24.714
rtibia 34.0222
rfoot -19.5473 15.373
rtoes -8.41376
lfemur 32.8163 -1.41422 -9.01443
ltibia -6.36111e-014
lfoot -12.4054 -23.3449
ltoes -25.6382
132
root 0.847042 16.584 -9.59768 -6.42823 7.61199 -5.80603
lowerback 9.18979 -3.22908 0.152341
upperback 2.29219 -4.13883 4.34073
thorax -2.44542 -2.06649 4.88266
lowerneck -13.378 -2.60958 -9.98402
upperneck 16.3853 -3.32146 9.90693
head 7.56651 -1.31052 4.59314
rclavicle -7.59606e-014 5.76476e-014
rhumerus -52.2636 -15.5811 -63.48
rradius 20.3861
rwrist 54.3207
rhand -27.6492 -13.28
rfingers 7.12502
rthumb -1.04714 -43.2571
lclavicle -7.59606e-014 5.76476e-014
lhumerus -16.3204 -16.6672 97.2803
lradius 34.3302
lwrist -22.219
lhand -42.8636 5.23914
lfingers 7.12502
lthumb -15.727 34.6201
rfemur -19.0669 -28.9435 24.7973
rtibia 34.1843
rfoot -19.9083 13.6963
rtoes -9.55265
lfemur 33.2273 -1.87584 -8.48536
ltibia -1.68569e-013
lfoot -9.97787 -23.7922
ltoes -27.6281
133
root 0.82842 16.5877 -9.3762 -6.50712 7.30177 -5.99407
lowerback 8.70319 -3.10084 0.521747
upperback 2.42399 -3.95236 4.41606
thorax -2.07483 -1.98054 4.69477
lowerneck -13.5466 -2.59084 -9.78447
upperneck 16.5935 -3.27652 9.59595
head 7.65176 -1.30049 4.4626
rclavicle 5.57094e-014 -6.83819e-014
rhumerus -51.8465 -15.8887 -63.7039
rradius 20.3314
rwrist 54.331
rhand -27.4522 -13.1432
rfingers 7.12502
rthumb -0.856877 -43.1213
lclavicle 5.57094e-014 -6.83819e-014
lhumerus -16.7444 -16.0435 97.4488
lradius 33.7988
lwrist -22.7037
lhand -42.8851 5.20599
lfingers 7.12502
lthumb -15.7477 34.5853
rfemur -18.1412 -28.6029 24.7155
rtibia 34.3466
rfoot -19.8992 13.9194
rtoes -9.37067
lfemur 33.7995 -1.93177 -8.11907
ltibia 0
lfoot -7.30235 -24.1852
ltoes -29.7002
134
root 0.807001 16.5951 -9.16656 -6.67444 7.0424 -6.60569
lowerback 8.43969 -3.09902 1.20534
upperback 2.50131 -3.89922 4.59574
thorax -1.88611 -1.95689 4.47254
lowerneck -13.6773 -2.53387 -9.49642
upperneck 16.8508 -3.21147 9.32032
head 7.74355 -1.27344 4.33235
rclavicle 3.94836e-014 -1.43125e-014
rhumerus -51.2253 -15.6735 -64.4841
rradius 20.2331
rwrist 54.1303
rhand -27.5014 -13.4562
rfingers 7.12502
rthumb -0.904361 -43.434
lclavicle 3.94836e-014 -1.43125e-014
lhumerus -17.312 -15.0184 97.4679
lradius 33.3308
lwrist -22.9355
lhand -42.6452 5.16376
lfingers 7.12502
lthumb -15.5167 34.5612
rfemur -17.101 -27.8755 25.0559
rtibia 34.4327
rfoot -19.9867 13.6483
rtoes -8.24355
lfemur 29.5639 -1.96954 -7.14095
ltibia 10.0796
lfoot -9.75461 -25.1107
ltoes -30.7738
135
root 0.78 16.6076 -8.95925 -6.6672 6.98515 -6.78686
lowerback 8.04113 -3.10883 1.38784
upperback 2.59016 -3.9183 4.62483
thorax -1.58263 -1.9696 4.37168
lowerneck -13.5895 -2.40351 -9.22763
upperneck 16.8388 -3.07141 9.18961
head 7.70306 -1.20342 4.25741
rclavicle 3.94836e-014 -1.43125e-014
rhumerus -51.2253 -15.6735 -64.4841
rradius 20.2331
rwrist 54.1303
rhand -27.5014 -13.4562
rfingers 7.12502
rthumb -0.904361 -43.434
lclavicle -4.81059e-014 1.98785e-014
lhumerus -17.8765 -14.0889 97.3142
lradius 32.8936
lwrist -23.1511
lhand -42.5451 5.58788
lfingers 7.12502
lthumb -15.4202 34.9927
rfemur -16.2486 -27.9466 25.0255
rtibia 34.4723
rfoot -20.2919 13.6921
rtoes -8.75711
lfemur 26.7957 -2.17781 -6.66522
ltibia 16.4766
lfoot -9.50417 -25.8125
ltoes -31.5123
136
root 0.751322 16.6139 -8.75349 -6.82652 6.69882 -7.04567
lowerback 7.80045 -3.01134 1.59881
upperback 2.71462 -3.78682 4.75158
thorax -1.33385 -1.90641 4.35375
lowerneck -13.9164 -2.38204 -9.03984
upperneck 17.1179 -3.03701 9.00945
head 7.84446 -1.18422 4.17401
rclavicle 3.1731e-014 -4.77083e-014
rhumerus -49.5284 -14.325 -66.9907
rradius 20.2006
rwrist 53.2083
rhand -27.5638 -13.8442
rfingers 7.12502
rthumb -0.964658 -43.8218
lclavicle 3.1731e-014 -4.77083e-014
lhumerus -18.4438 -13.4005 97.3326
lradius 32.354
lwrist -22.8311
lhand -42.3603 5.02333
lfingers 7.12502
lthumb -15.2423 34.4418
rfemur -15.1835 -28.2243 25.0609
rtibia 34.4147
rfoot -20.661 14.295
rtoes -8.14913
lfemur 24.6955 -1.98932 -5.89484
ltibia 21.7858
lfoot -8.18851 -26.6309
ltoes -30.7095
137
root 0.725875 16.6274 -8.55281 -6.89152 6.59186 -7.16081
lowerback 7.59427 -2.94021 1.77164
upperback 2.77447 -3.69145 4.78892
thorax -1.17223 -1.85928 4.2725
lowerneck -13.8816 -2.38802 -8.74935
upperneck 17.103 -3.0594 8.74351
head 7.8273 -1.20141 4.03148
rclavicle 3.1731e-014 -4.77083e-014
rhumerus -49.5284 -14.325 -66.9907
rradius 20.2006
rwrist 53.2083
rhand -27.5638 -13.8442
rfingers 7.12502
rthumb -0.964658 -43.8218
lclavicle 4.01794e-014 -1.19271e-014
lhumerus -19.0638 -12.8512 97.3073
lradius 31.8697
lwrist -22.6512
lhand -41.8142 5.54968
lfingers 7.12502
lthumb -14.7162 35.0073
rfemur -14.2498 -28.8081 24.9465
rtibia 34.365
rfoot -20.8048 15.0545
rtoes -7.29096
lfemur 22.6402 -1.8263 -5.31971
ltibia 26.5093
lfoot -6.61435 -27.4827
ltoes -29.2817
